<svg width="152" height="152" viewBox="0 0 152 152" fill="none" xmlns="http://www.w3.org/2000/svg">
<g id="Group 34830">
<g id="Group 34820">
<circle id="Ellipse 2521" cx="2.33848" cy="149.663" r="2.33848" fill="white"/>
<circle id="Ellipse 2522" cx="18.7096" cy="149.663" r="2.33848" fill="white"/>
<circle id="Ellipse 2523" cx="35.0768" cy="149.663" r="2.33848" fill="white"/>
<circle id="Ellipse 2524" cx="51.4479" cy="149.663" r="2.33848" fill="white"/>
<circle id="Ellipse 2525" cx="67.815" cy="149.663" r="2.33848" fill="white"/>
<circle id="Ellipse 2526" cx="84.1861" cy="149.663" r="2.33848" fill="white"/>
<circle id="Ellipse 2527" cx="100.553" cy="149.663" r="2.33848" fill="white"/>
<circle id="Ellipse 2528" cx="116.924" cy="149.663" r="2.33848" fill="white"/>
<circle id="Ellipse 2529" cx="133.296" cy="149.663" r="2.33848" fill="white"/>
<circle id="Ellipse 2530" cx="149.663" cy="149.663" r="2.33848" fill="white"/>
</g>
<g id="Group 34821">
<circle id="Ellipse 2521_2" cx="2.33848" cy="133.293" r="2.33848" fill="white"/>
<circle id="Ellipse 2522_2" cx="18.7096" cy="133.293" r="2.33848" fill="white"/>
<circle id="Ellipse 2523_2" cx="35.0768" cy="133.293" r="2.33848" fill="white"/>
<circle id="Ellipse 2524_2" cx="51.4479" cy="133.293" r="2.33848" fill="white"/>
<circle id="Ellipse 2525_2" cx="67.815" cy="133.293" r="2.33848" fill="white"/>
<circle id="Ellipse 2526_2" cx="84.1861" cy="133.293" r="2.33848" fill="white"/>
<circle id="Ellipse 2527_2" cx="100.553" cy="133.293" r="2.33848" fill="white"/>
<circle id="Ellipse 2528_2" cx="116.924" cy="133.293" r="2.33848" fill="white"/>
<circle id="Ellipse 2529_2" cx="133.296" cy="133.293" r="2.33848" fill="white"/>
<circle id="Ellipse 2530_2" cx="149.663" cy="133.293" r="2.33848" fill="white"/>
</g>
<g id="Group 34822">
<circle id="Ellipse 2521_3" cx="2.33848" cy="116.924" r="2.33848" fill="white"/>
<circle id="Ellipse 2522_3" cx="18.7096" cy="116.924" r="2.33848" fill="white"/>
<circle id="Ellipse 2523_3" cx="35.0768" cy="116.924" r="2.33848" fill="white"/>
<circle id="Ellipse 2524_3" cx="51.4479" cy="116.924" r="2.33848" fill="white"/>
<circle id="Ellipse 2525_3" cx="67.815" cy="116.924" r="2.33848" fill="white"/>
<circle id="Ellipse 2526_3" cx="84.1861" cy="116.924" r="2.33848" fill="white"/>
<circle id="Ellipse 2527_3" cx="100.553" cy="116.924" r="2.33848" fill="white"/>
<circle id="Ellipse 2528_3" cx="116.924" cy="116.924" r="2.33848" fill="white"/>
<circle id="Ellipse 2529_3" cx="133.296" cy="116.924" r="2.33848" fill="white"/>
<circle id="Ellipse 2530_3" cx="149.663" cy="116.924" r="2.33848" fill="white"/>
</g>
<g id="Group 34823">
<circle id="Ellipse 2521_4" cx="2.33848" cy="100.555" r="2.33848" fill="white"/>
<circle id="Ellipse 2522_4" cx="18.7096" cy="100.555" r="2.33848" fill="white"/>
<circle id="Ellipse 2523_4" cx="35.0768" cy="100.555" r="2.33848" fill="white"/>
<circle id="Ellipse 2524_4" cx="51.4479" cy="100.555" r="2.33848" fill="white"/>
<circle id="Ellipse 2525_4" cx="67.815" cy="100.555" r="2.33848" fill="white"/>
<circle id="Ellipse 2526_4" cx="84.1861" cy="100.555" r="2.33848" fill="white"/>
<circle id="Ellipse 2527_4" cx="100.553" cy="100.555" r="2.33848" fill="white"/>
<circle id="Ellipse 2528_4" cx="116.924" cy="100.555" r="2.33848" fill="white"/>
<circle id="Ellipse 2529_4" cx="133.296" cy="100.555" r="2.33848" fill="white"/>
<circle id="Ellipse 2530_4" cx="149.663" cy="100.555" r="2.33848" fill="white"/>
</g>
<g id="Group 34824">
<circle id="Ellipse 2521_5" cx="2.33848" cy="84.1852" r="2.33848" fill="white"/>
<circle id="Ellipse 2522_5" cx="18.7096" cy="84.1852" r="2.33848" fill="white"/>
<circle id="Ellipse 2523_5" cx="35.0768" cy="84.1852" r="2.33848" fill="white"/>
<circle id="Ellipse 2524_5" cx="51.4479" cy="84.1852" r="2.33848" fill="white"/>
<circle id="Ellipse 2525_5" cx="67.815" cy="84.1852" r="2.33848" fill="white"/>
<circle id="Ellipse 2526_5" cx="84.1861" cy="84.1852" r="2.33848" fill="white"/>
<circle id="Ellipse 2527_5" cx="100.553" cy="84.1852" r="2.33848" fill="white"/>
<circle id="Ellipse 2528_5" cx="116.924" cy="84.1854" r="2.33848" fill="white"/>
<circle id="Ellipse 2529_5" cx="133.296" cy="84.1852" r="2.33848" fill="white"/>
<circle id="Ellipse 2530_5" cx="149.663" cy="84.1852" r="2.33848" fill="white"/>
</g>
<g id="Group 34825">
<circle id="Ellipse 2521_6" cx="2.33848" cy="67.8159" r="2.33848" fill="white"/>
<circle id="Ellipse 2522_6" cx="18.7096" cy="67.8159" r="2.33848" fill="white"/>
<circle id="Ellipse 2523_6" cx="35.0768" cy="67.8159" r="2.33848" fill="white"/>
<circle id="Ellipse 2524_6" cx="51.4479" cy="67.8159" r="2.33848" fill="white"/>
<circle id="Ellipse 2525_6" cx="67.815" cy="67.8159" r="2.33848" fill="white"/>
<circle id="Ellipse 2526_6" cx="84.1861" cy="67.8159" r="2.33848" fill="white"/>
<circle id="Ellipse 2527_6" cx="100.553" cy="67.8159" r="2.33848" fill="white"/>
<circle id="Ellipse 2528_6" cx="116.924" cy="67.8158" r="2.33848" fill="white"/>
<circle id="Ellipse 2529_6" cx="133.296" cy="67.8159" r="2.33848" fill="white"/>
<circle id="Ellipse 2530_6" cx="149.663" cy="67.8159" r="2.33848" fill="white"/>
</g>
<g id="Group 34826">
<circle id="Ellipse 2521_7" cx="2.33848" cy="51.4465" r="2.33848" fill="white"/>
<circle id="Ellipse 2522_7" cx="18.7096" cy="51.4465" r="2.33848" fill="white"/>
<circle id="Ellipse 2523_7" cx="35.0768" cy="51.4465" r="2.33848" fill="white"/>
<circle id="Ellipse 2524_7" cx="51.4479" cy="51.4465" r="2.33848" fill="white"/>
<circle id="Ellipse 2525_7" cx="67.815" cy="51.4465" r="2.33848" fill="white"/>
<circle id="Ellipse 2526_7" cx="84.1861" cy="51.4465" r="2.33848" fill="white"/>
<circle id="Ellipse 2527_7" cx="100.553" cy="51.4465" r="2.33848" fill="white"/>
<circle id="Ellipse 2528_7" cx="116.924" cy="51.4465" r="2.33848" fill="white"/>
<circle id="Ellipse 2529_7" cx="133.296" cy="51.4465" r="2.33848" fill="white"/>
<circle id="Ellipse 2530_7" cx="149.663" cy="51.4465" r="2.33848" fill="white"/>
</g>
<g id="Group 34827">
<circle id="Ellipse 2521_8" cx="2.33848" cy="35.0772" r="2.33848" fill="white"/>
<circle id="Ellipse 2522_8" cx="18.7096" cy="35.0772" r="2.33848" fill="white"/>
<circle id="Ellipse 2523_8" cx="35.0768" cy="35.0772" r="2.33848" fill="white"/>
<circle id="Ellipse 2524_8" cx="51.4479" cy="35.0772" r="2.33848" fill="white"/>
<circle id="Ellipse 2525_8" cx="67.815" cy="35.0772" r="2.33848" fill="white"/>
<circle id="Ellipse 2526_8" cx="84.1861" cy="35.0772" r="2.33848" fill="white"/>
<circle id="Ellipse 2527_8" cx="100.553" cy="35.0772" r="2.33848" fill="white"/>
<circle id="Ellipse 2528_8" cx="116.924" cy="35.0773" r="2.33848" fill="white"/>
<circle id="Ellipse 2529_8" cx="133.296" cy="35.0772" r="2.33848" fill="white"/>
<circle id="Ellipse 2530_8" cx="149.663" cy="35.0772" r="2.33848" fill="white"/>
</g>
<g id="Group 34828">
<circle id="Ellipse 2521_9" cx="2.33848" cy="18.7078" r="2.33848" fill="white"/>
<circle id="Ellipse 2522_9" cx="18.7096" cy="18.7078" r="2.33848" fill="white"/>
<circle id="Ellipse 2523_9" cx="35.0768" cy="18.7078" r="2.33848" fill="white"/>
<circle id="Ellipse 2524_9" cx="51.4479" cy="18.7078" r="2.33848" fill="white"/>
<circle id="Ellipse 2525_9" cx="67.815" cy="18.7078" r="2.33848" fill="white"/>
<circle id="Ellipse 2526_9" cx="84.1861" cy="18.7078" r="2.33848" fill="white"/>
<circle id="Ellipse 2527_9" cx="100.553" cy="18.7078" r="2.33848" fill="white"/>
<circle id="Ellipse 2528_9" cx="116.924" cy="18.7077" r="2.33848" fill="white"/>
<circle id="Ellipse 2529_9" cx="133.296" cy="18.7078" r="2.33848" fill="white"/>
<circle id="Ellipse 2530_9" cx="149.663" cy="18.7078" r="2.33848" fill="white"/>
</g>
<g id="Group 34829">
<circle id="Ellipse 2521_10" cx="2.33848" cy="2.33848" r="2.33848" fill="white"/>
<circle id="Ellipse 2522_10" cx="18.7096" cy="2.33848" r="2.33848" fill="white"/>
<circle id="Ellipse 2523_10" cx="35.0768" cy="2.33848" r="2.33848" fill="white"/>
<circle id="Ellipse 2524_10" cx="51.4479" cy="2.33848" r="2.33848" fill="white"/>
<circle id="Ellipse 2525_10" cx="67.815" cy="2.33848" r="2.33848" fill="white"/>
<circle id="Ellipse 2526_10" cx="84.1861" cy="2.33848" r="2.33848" fill="white"/>
<circle id="Ellipse 2527_10" cx="100.553" cy="2.33848" r="2.33848" fill="white"/>
<circle id="Ellipse 2528_10" cx="116.924" cy="2.33848" r="2.33848" fill="white"/>
<circle id="Ellipse 2529_10" cx="133.296" cy="2.33848" r="2.33848" fill="white"/>
<circle id="Ellipse 2530_10" cx="149.663" cy="2.33848" r="2.33848" fill="white"/>
</g>
</g>
</svg>
